
        <svg xmlns="http://www.w3.org/2000/svg" xmlns:xlink="http://www.w3.org/1999/xlink" version="1.1" width="3175.8267032054605" 
        height="747.7148817115354" viewBox="0 -70.33068128218423 3175.8267032054605 747.7148817115354">
			
			<g transform="scale(8.791335160273029) translate(10, 10)">
				<defs id="SvgjsDefs12960"></defs><g id="SvgjsG12961" featureKey="symbolFeature-0" transform="matrix(1.0235919952392578,0,0,1.0235919952392578,12.929223967605001,-30.51902423756333)" fill="#bf1922"><polygon xmlns="http://www.w3.org/2000/svg" points="11.933,68 3,68 20.865,29 29.798,29 "></polygon><polygon xmlns="http://www.w3.org/2000/svg" points="32.031,68 23.099,68 40.964,29 49.896,29 "></polygon><polygon xmlns="http://www.w3.org/2000/svg" points="42.081,68 33.148,68 51.014,29 59.946,29 "></polygon><polygon xmlns="http://www.w3.org/2000/svg" points="88,68 70.135,29 69.995,29 61.202,29 61.062,29 43.197,68 52.13,68 65.599,38.598 79.067,68 "></polygon><polygon xmlns="http://www.w3.org/2000/svg" points="38,29 38,22 31,22 31,29 30.915,29 13.049,68 21.982,68 39.847,29 "></polygon><g xmlns="http://www.w3.org/2000/svg"><rect x="60" y="54" width="5" height="4"></rect><rect x="66" y="54" width="5" height="4"></rect><rect x="66" y="59" width="5" height="5"></rect><rect x="60" y="59" width="5" height="5"></rect></g></g><g id="SvgjsG12962" featureKey="nameFeature-0" transform="matrix(1.4679770469665527,0,0,1.4679770469665527,104.29892470526504,-15.325680345934208)" fill="#013e88"><path d="M32.72 24 c2.2133 -1.4133 3.32 -3.4133 3.32 -6 c0 -1.9467 -0.69332 -3.62 -2.08 -5.02 s-3.0534 -2.1 -5 -2.1 l-27.12 0 l0 26.24 l27.12 0 c1.9467 0 3.6134 -0.7 5 -2.1 s2.08 -3.0733 2.08 -5.02 c0 -2.5867 -1.1067 -4.5868 -3.32 -6 z M28.96 13.120000000000001 c1.3333 0 2.4733 0.48 3.42 1.44 s1.42 2.1067 1.42 3.44 s-0.47332 2.48 -1.42 3.44 s-2.0867 1.44 -3.42 1.44 l-24.92 0 l0 -9.76 l24.92 0 z M28.96 34.88 l-24.92 0 l0 -9.76 l24.92 0 c1.3333 0 2.4733 0.48 3.42 1.44 s1.42 2.1067 1.42 3.44 s-0.47332 2.48 -1.42 3.44 s-2.0867 1.44 -3.42 1.44 z M60.79 10.440000000000001 c-4.8532 0 -9.0132 1.32 -12.48 3.96 c-3.5467 2.6933 -5.32 5.9732 -5.32 9.84 s1.7733 7.1468 5.32 9.84 c3.44 2.6133 7.6 3.92 12.48 3.92 s9.0268 -1.3067 12.44 -3.92 c3.5467 -2.72 5.32 -6 5.32 -9.84 s-1.7733 -7.12 -5.32 -9.84 c-3.4667 -2.64 -7.6132 -3.96 -12.44 -3.96 z M76.35 24.240000000000002 c0 3.1733 -1.52 5.8868 -4.56 8.14 s-6.7068 3.38 -11 3.38 s-7.96 -1.1267 -11 -3.38 s-4.56 -4.9668 -4.56 -8.14 c0 -3.2 1.52 -5.9268 4.56 -8.18 s6.7068 -3.38 11 -3.38 s7.96 1.1267 11 3.38 s4.56 4.98 4.56 8.18 z M111.13999999999999 11.64 c-1.44 -0.50668 -2.8933 -0.76 -4.36 -0.76 l-21.12 0 l0 26.24 l21.12 0 c1.4667 0 2.92 -0.25332 4.36 -0.76 c2.6133 -0.90668 4.7268 -2.5 6.34 -4.78 s2.42 -4.8068 2.42 -7.58 s-0.80668 -5.3 -2.42 -7.58 s-3.7266 -3.8733 -6.34 -4.78 z M110.41999999999999 34.28 c-1.12 0.4 -2.3333 0.60016 -3.64 0.60016 l-18.88 0 l0 -21.76 l18.88 0 c1.3067 0 2.52 0.2 3.64 0.6 c2.16 0.77332 3.9067 2.1066 5.24 4 s2 3.9866 2 6.28 s-0.66668 4.3868 -2 6.28 s-3.08 3.2266 -5.24 4 z M160.29 25.119999999999997 c0.74668 0 1.12 -0.37332 1.12 -1.12 s-0.37332 -1.12 -1.12 -1.12 l-30.88 0 l0 -9.76 l30.88 0 c0.74668 0 1.12 -0.37332 1.12 -1.12 s-0.37332 -1.12 -1.12 -1.12 l-33.12 0 l0 26.24 l33.12 0 c0.74668 0 1.12 -0.37332 1.12 -1.12 s-0.37332 -1.12 -1.12 -1.12 l-30.88 0 l0 -9.76 l30.88 0 z"></path></g><g id="SvgjsG12963" featureKey="sloganFeature-0" transform="matrix(0.36445489525794983,0,0,0.36445489525794983,180.76674877819767,50.12670200333204)" fill="#bf1922"><path d="M21.94 17.64 l-10.76 -12.5 l-10.42 12.5 c-0.08 0.09334 -0.12 0.20668 -0.12 0.34002 c0 0.38666 0.19334 0.58 0.58 0.58 c0.16 0 0.29334 -0.06666 0.4 -0.2 l0 0 l3.16 -3.8 l13.04 0 l3.28 3.8 c0.12 0.13334 0.26666 0.2 0.44 0.2 c0.36 0 0.54 -0.18 0.54 -0.54 c0 -0.14666 -0.04666 -0.27332 -0.14 -0.37998 z M5.72 13.440000000000001 l5.48 -6.58 l5.68 6.58 l-11.16 0 z M55.58 12 c1.1067 -0.70666 1.66 -1.7067 1.66 -3 c0 -0.97334 -0.34666 -1.81 -1.04 -2.51 s-1.5267 -1.05 -2.5 -1.05 l-13.56 0 l0 13.12 l13.56 0 c0.97334 0 1.8067 -0.35 2.5 -1.05 s1.04 -1.5367 1.04 -2.51 c0 -1.2933 -0.55334 -2.2934 -1.66 -3 z M53.7 6.5600000000000005 c0.66666 0 1.2367 0.24 1.71 0.72 s0.71 1.0533 0.71 1.72 s-0.23666 1.24 -0.71 1.72 s-1.0433 0.72 -1.71 0.72 l-12.46 0 l0 -4.88 l12.46 0 z M53.7 17.44 l-12.46 0 l0 -4.88 l12.46 0 c0.66666 0 1.2367 0.24 1.71 0.72 s0.71 1.0533 0.71 1.72 s-0.23666 1.24 -0.71 1.72 s-1.0433 0.72 -1.71 0.72 z M83.72 5.220000000000001 c-2.4266 0 -4.5066 0.66 -6.24 1.98 c-1.7733 1.3467 -2.66 2.9866 -2.66 4.92 s0.88666 3.5734 2.66 4.92 c1.72 1.3067 3.8 1.96 6.24 1.96 s4.5134 -0.65334 6.22 -1.96 c1.7733 -1.36 2.66 -3 2.66 -4.92 s-0.88666 -3.56 -2.66 -4.92 c-1.7333 -1.32 -3.8066 -1.98 -6.22 -1.98 z M91.49999999999999 12.120000000000001 c0 1.5867 -0.76 2.9434 -2.28 4.07 s-3.3534 1.69 -5.5 1.69 s-3.98 -0.56334 -5.5 -1.69 s-2.28 -2.4834 -2.28 -4.07 c0 -1.6 0.76 -2.9634 2.28 -4.09 s3.3534 -1.69 5.5 -1.69 s3.98 0.56334 5.5 1.69 s2.28 2.49 2.28 4.09 z M122.99999999999999 5.82 c-0.72 -0.25334 -1.4467 -0.38 -2.18 -0.38 l-10.56 0 l0 13.12 l10.56 0 c0.73334 0 1.46 -0.12666 2.18 -0.38 c1.3067 -0.45334 2.3634 -1.25 3.17 -2.39 s1.21 -2.4034 1.21 -3.79 s-0.40334 -2.65 -1.21 -3.79 s-1.8633 -1.9367 -3.17 -2.39 z M122.63999999999999 17.14 c-0.56 0.2 -1.1667 0.30008 -1.82 0.30008 l-9.44 0 l0 -10.88 l9.44 0 c0.65334 0 1.26 0.1 1.82 0.3 c1.08 0.38666 1.9533 1.0533 2.62 2 s1 1.9933 1 3.14 s-0.33334 2.1934 -1 3.14 s-1.54 1.6133 -2.62 2 z M161.67999999999998 12.559999999999999 c0.37334 0 0.56 -0.18666 0.56 -0.56 s-0.18666 -0.56 -0.56 -0.56 l-15.44 0 l0 -4.88 l15.44 0 c0.37334 0 0.56 -0.18666 0.56 -0.56 s-0.18666 -0.56 -0.56 -0.56 l-16.56 0 l0 13.12 l16.56 0 c0.37334 0 0.56 -0.18666 0.56 -0.56 s-0.18666 -0.56 -0.56 -0.56 l-15.44 0 l0 -4.88 l15.44 0 z"></path></g>
			</g>
		</svg>
	